<?xml version="1.0"?>
<svg version="1.1" xmlns="http://www.w3.org/2000/svg" width="140" height="82" style=""><path fill="#c73232" d="M15.779296875,38.5595703125q-0.02734375-0.3623046875,0.0615234375-0.68359375t0.3349609375-0.533203125t0.833984375-0.2119140625q0.13671875,0,0.3349609375,0.02734375t0.396484375,0.0888671875t0.3212890625,0.1708984375t0.123046875,0.30078125q0,0.505859375,0.0341796875,1.3330078125t0.0888671875,1.72265625t0.1025390625,1.75t0.0888671875,1.3876953125q1.06640625-0.0546875,2.146484375-0.0546875t2.1328125-0.0546875l1.88671875-0.0546875l0-1.353515625q0-2.26953125-0.0888671875-4.5458984375t-0.3076171875-4.5458984375q0-0.1640625,0.13671875-0.2666015625t0.3212890625-0.1572265625t0.3828125-0.068359375t0.3076171875-0.013671875q0.314453125,0,0.6767578125,0.095703125t0.4169921875,0.41015625l0.08203125,0.587890625q0.341796875,2.4609375,0.46484375,4.8671875t0.177734375,4.8125q0.1640625,0.02734375,0.3486328125,0.0888671875t0.3759765625,0.1162109375q0.13671875,0.0546875,0.3896484375,0.1640625t0.2529296875,0.341796875q0,0.21875-0.19140625,0.341796875t-0.4306640625,0.1845703125t-0.46484375,0.0751953125t-0.2802734375,0.013671875q0.02734375,1.01171875,0.02734375,2.0166015625l0,2.0166015625l0,4.416015625l0,2.4609375q0,0.1640625-0.1572265625,0.2939453125t-0.3759765625,0.2119140625t-0.4580078125,0.109375t-0.4306640625,0.02734375t-0.451171875-0.02734375t-0.46484375-0.109375t-0.3623046875-0.205078125t-0.1572265625-0.30078125l0-0.587890625q0.0546875-2.59765625,0.123046875-5.1474609375t0.13671875-5.1201171875q-1.490234375,0.0546875-3.0283203125,0.068359375t-3.0556640625,0.068359375q0.1640625,1.927734375,0.3759765625,3.8486328125t0.4443359375,3.8486328125q0,0.1640625-0.1572265625,0.2939453125t-0.369140625,0.2119140625t-0.451171875,0.109375t-0.4306640625,0.02734375q-0.396484375,0-0.8681640625-0.13671875t-0.5263671875-0.505859375q-0.1640625-1.44921875-0.3076171875-3.19921875t-0.2529296875-3.5751953125t-0.1708984375-3.5751953125t-0.0615234375-3.171875q0-0.341796875-0.02734375-0.7041015625z M30.84119140625,48.697265625q0-0.2734375,0.0615234375-0.724609375t0.1435546875-0.8955078125t0.19140625-0.8271484375t0.259765625-0.4921875q0.109375-0.109375,0.3759765625-0.21875t0.560546875-0.1572265625t0.546875,0.041015625t0.3076171875,0.3623046875q-0.19140625,0.24609375-0.3486328125,0.8408203125t-0.2392578125,1.3193359375q-0.068359375,0.615234375-0.068359375,1.271484375l0,0.232421875q0.013671875,0.765625,0.13671875,1.408203125t0.3759765625,1.0595703125t0.7041015625,0.4169921875q0.95703125,0,1.75-0.8818359375t1.408203125-2.1533203125t1.080078125-2.7001953125t0.79296875-2.4951171875q0.08203125-0.314453125,0.3896484375-0.423828125t0.6630859375-0.0751953125t0.6357421875,0.1708984375t0.3349609375,0.328125q-0.2734375,2.296875-0.4306640625,4.59375t-0.1572265625,4.62109375q0,0.451171875,0.041015625,0.8271484375t-0.041015625,0.642578125t-0.3623046875,0.423828125t-0.8955078125,0.1572265625q-0.13671875,0-0.3486328125-0.02734375t-0.4375-0.0888671875t-0.3828125-0.1845703125t-0.1572265625-0.287109375q0-1.01171875,0.0751953125-2.078125t0.2119140625-2.064453125q-0.369140625,0.533203125-0.8134765625,1.0595703125t-0.9775390625,0.9501953125t-1.1484375,0.6767578125t-1.326171875,0.2529296875q-1.01171875,0-1.5927734375-0.478515625t-0.875-1.1962890625t-0.369140625-1.5654296875t-0.0751953125-1.640625z M43.7155859375,49.96875l0-0.396484375q0-0.4921875,0.02734375-0.9296875q0.02734375-0.615234375,0.02734375-1.01171875q0-0.21875,0.02734375-0.4990234375t0.13671875-0.4443359375q0.13671875-0.13671875,0.3212890625-0.2802734375t0.4033203125-0.1435546875q0.697265625,0,1.09375,0.1572265625t0.423828125,0.6494140625l0.0546875,0.423828125q0.24609375-0.587890625,0.65625-1.4560546875t0.9501953125-1.654296875t1.216796875-1.33984375t1.4287109375-0.5537109375q0.697265625,0,1.1484375,0.65625t0.7177734375,1.6748046875t0.3759765625,2.26953125t0.150390625,2.4541015625t0.0546875,2.1943359375t0.095703125,1.4970703125q0.0546875,0.423828125,0.1845703125,0.8955078125t0.1298828125,0.8681640625q0,0.109375-0.1572265625,0.2119140625t-0.3349609375,0.1708984375t-0.3623046875,0.109375t-0.2666015625,0.041015625q-0.533203125,0-0.7587890625-0.7998046875t-0.2802734375-2.0029296875t-0.0546875-2.6044921875t-0.095703125-2.6044921875t-0.3896484375-2.0029296875t-0.9365234375-0.8271484375q-0.587890625,0-1.216796875,0.7587890625t-1.080078125,2.0166015625q-0.4375,1.2578125-0.6015625,2.857421875q-0.0546875,0.505859375-0.0546875,1.01171875q0,1.107421875,0.232421875,2.21484375q0.02734375,0.19140625-0.1572265625,0.287109375t-0.4580078125,0.150390625t-0.5537109375,0.068359375t-0.4306640625,0.013671875q-0.533203125,0-0.8544921875-0.3759765625t-0.4990234375-0.9638671875t-0.2392578125-1.3193359375t-0.0751953125-1.4423828125z M56.13880859375,49.421875q0-0.751953125,0.1435546875-1.6064453125t0.4921875-1.5654296875t0.9638671875-1.17578125t1.572265625-0.46484375q0.642578125,0,1.244140625,0.2119140625t1.134765625,0.5810546875q0.1640625-0.2734375,0.51953125-0.3349609375t0.62890625-0.0615234375q0.109375,0,0.3076171875,0.013671875t0.3896484375,0.08203125t0.3349609375,0.1640625t0.1708984375,0.2734375q0.109375,0.95703125,0.150390625,1.9072265625t0.123046875,1.8935546875q0.13671875,1.763671875,0.423828125,3.486328125t0.287109375,3.486328125q0,0.833984375-0.0751953125,1.8046875t-0.396484375,1.7978515625t-0.9365234375,1.3740234375t-1.708984375,0.546875q-0.984375,0-1.5107421875-0.3486328125t-0.9501953125-1.1689453125q0.02734375-0.2734375,0.3486328125-0.3623046875t0.5537109375-0.0888671875q0.21875,0,0.4443359375,0.041015625t0.3623046875,0.13671875l0.341796875,0.21875q0.505859375-1.0390625,0.615234375-2.26953125t0.109375-2.37890625q0-0.95703125-0.095703125-1.8935546875t-0.19140625-1.8798828125q-0.95703125,1.736328125-2.912109375,1.736328125q-0.90234375,0-1.4697265625-0.3828125t-0.875-0.970703125t-0.423828125-1.326171875t-0.1162109375-1.4765625z M57.82044921875,49.544921875q0,0.341796875,0.02734375,0.8818359375t0.1435546875,1.0595703125t0.3349609375,0.8955078125t0.615234375,0.3759765625q0.751953125,0,1.189453125-0.587890625t0.6904296875-1.4013671875t0.4033203125-1.681640625t0.3828125-1.4287109375q-0.02734375-0.19140625-0.02734375-0.3759765625l0-0.3759765625q-0.314453125-0.587890625-0.916015625-1.0185546875t-1.244140625-0.5810546875q-0.08203125-0.013671875-0.150390625-0.013671875q-0.3828125,0-0.62890625,0.451171875q-0.314453125,0.546875-0.4921875,1.3056640625t-0.2529296875,1.4970703125t-0.0751953125,0.998046875z M73.17861328125,47.97265625l0-2.16015625q0-2.2421875,0.0751953125-4.4501953125t0.1298828125-4.4501953125q0-0.423828125-0.02734375-0.943359375q-0.013671875-0.150390625-0.013671875-0.287109375q0-0.341796875,0.0546875-0.669921875q0.068359375-0.4375,0.3349609375-0.751953125t0.8818359375-0.314453125q0.505859375,0,0.7724609375,0.109375t0.3759765625,0.3212890625t0.123046875,0.533203125t0.013671875,0.7451171875q0,2.26953125-0.0546875,4.552734375q-0.041015625,1.517578125-0.041015625,3.03515625q0,0.765625,0.013671875,1.53125q0.02734375,2.26953125,0.2119140625,4.5390625t0.6220703125,4.484375q1.3671875-0.0546875,2.734375-0.13671875t2.734375-0.08203125q0.13671875,0,0.3896484375,0.02734375t0.505859375,0.095703125t0.4306640625,0.177734375t0.177734375,0.314453125q0,0.13671875-0.123046875,0.232421875t-0.232421875,0.150390625l-0.02734375,0q-0.21875,0.109375-0.8681640625,0.2119140625t-1.4765625,0.1572265625t-1.736328125,0.095703125t-1.708984375,0.068359375t-1.3876953125,0.041015625t-0.724609375,0.013671875l-0.123046875,0q-0.328125,0-0.73828125-0.109375q-0.4921875-0.13671875-0.615234375-0.533203125q-0.24609375-1.01171875-0.3896484375-2.0986328125t-0.21875-2.2080078125t-0.0751953125-2.2421875z M85.5881640625,49.572265625q0-1.2578125,0.2939453125-2.4677734375t0.4990234375-2.4130859375q0.0546875-0.314453125,0.4306640625-0.3896484375t0.6357421875-0.0751953125q0.451171875,0,0.724609375,0.13671875q0.109375,0.0546875,0.205078125,0.123046875t0.095703125,0.177734375q0,1.17578125-0.2802734375,2.296875t-0.2802734375,2.37890625q0,0.423828125,0.0615234375,0.7998046875t0.1162109375,0.7451171875l0.08203125,0.396484375q0,0.109375,0.013671875,0.19140625t0.041015625,0.19140625q0,0.24609375-0.3486328125,0.3349609375t-0.6083984375,0.0888671875q-0.396484375,0-0.7314453125-0.1572265625t-0.5263671875-0.5400390625l-0.19140625-0.396484375q-0.1640625-0.314453125-0.1640625-0.7041015625t-0.068359375-0.7177734375z M86.4631640625,41.341796875l0-0.259765625q0-0.642578125,0.3212890625-1.1484375t0.9638671875-0.505859375q0.08203125,0,0.1572265625,0.013671875t0.1572265625,0.013671875q0.1640625,0.02734375,0.4306640625,0.1298828125t0.2666015625,0.3212890625l0,0.02734375q-0.0546875,0.109375-0.068359375,0.2255859375t-0.068359375,0.1982421875l0.02734375-0.02734375q-0.1640625,0.423828125-0.2666015625,0.68359375t-0.2255859375,0.4169921875t-0.3076171875,0.2255859375t-0.5263671875,0.068359375q-0.0546875,0-0.19140625-0.013671875t-0.2939453125-0.0546875t-0.2666015625-0.109375t-0.109375-0.205078125z M91.57193359375,49.96875l0-0.396484375q0-0.4921875,0.02734375-0.9296875q0.02734375-0.615234375,0.02734375-1.01171875q0-0.21875,0.02734375-0.4990234375t0.13671875-0.4443359375q0.13671875-0.13671875,0.3212890625-0.2802734375t0.4033203125-0.1435546875q0.697265625,0,1.09375,0.1572265625t0.423828125,0.6494140625l0.0546875,0.423828125q0.24609375-0.587890625,0.65625-1.4560546875t0.9501953125-1.654296875t1.216796875-1.33984375t1.4287109375-0.5537109375q0.697265625,0,1.1484375,0.65625t0.7177734375,1.6748046875t0.3759765625,2.26953125t0.150390625,2.4541015625t0.0546875,2.1943359375t0.095703125,1.4970703125q0.0546875,0.423828125,0.1845703125,0.8955078125t0.1298828125,0.8681640625q0,0.109375-0.1572265625,0.2119140625t-0.3349609375,0.1708984375t-0.3623046875,0.109375t-0.2666015625,0.041015625q-0.533203125,0-0.7587890625-0.7998046875t-0.2802734375-2.0029296875t-0.0546875-2.6044921875t-0.095703125-2.6044921875t-0.3896484375-2.0029296875t-0.9365234375-0.8271484375q-0.587890625,0-1.216796875,0.7587890625t-1.080078125,2.0166015625q-0.4375,1.2578125-0.6015625,2.857421875q-0.0546875,0.505859375-0.0546875,1.01171875q0,1.107421875,0.232421875,2.21484375q0.02734375,0.19140625-0.1572265625,0.287109375t-0.4580078125,0.150390625t-0.5537109375,0.068359375t-0.4306640625,0.013671875q-0.533203125,0-0.8544921875-0.3759765625t-0.4990234375-0.9638671875t-0.2392578125-1.3193359375t-0.0751953125-1.4423828125z M103.99515625,51.390625l0-1.28515625q0-0.697265625,0.0341796875-1.9755859375t0.0888671875-2.802734375t0.150390625-3.1787109375t0.21875-3.1240234375t0.2939453125-2.6318359375t0.3896484375-1.72265625q0.13671875-0.314453125,0.451171875-0.396484375t0.615234375-0.08203125q0.478515625,0,0.8408203125,0.2119140625t0.3623046875,0.7724609375l-0.24609375,0.2734375q-0.478515625,3.158203125-0.615234375,6.34375t-0.19140625,6.37109375q0.341796875-0.533203125,0.7724609375-1.0458984375t0.95703125-0.9091796875t1.134765625-0.6357421875t1.3330078125-0.2392578125q0.9296875,0,1.5380859375,0.560546875t1.0048828125,1.4560546875t0.587890625,2.0029296875t0.2939453125,2.21484375t0.1435546875,2.0986328125t0.123046875,1.6474609375q-0.259765625,0.35546875-0.765625,0.35546875l-0.041015625,0q-0.21875,0-0.478515625-0.0546875t-0.341796875-0.2734375l0.02734375,0.02734375q-0.19140625-0.423828125-0.259765625-1.2236328125t-0.109375-1.763671875t-0.1435546875-1.9755859375t-0.3076171875-1.83203125t-0.6015625-1.353515625t-1.06640625-0.560546875l-0.08203125,0q-0.806640625,0-1.353515625,0.4921875q-0.57421875,0.51953125-0.9296875,1.3671875t-0.546875,1.88671875t-0.2939453125,2.0029296875t-0.1572265625,1.75t-0.13671875,1.1552734375q-0.08203125,0.314453125-0.4853515625,0.4169921875t-0.6904296875,0.1025390625q-0.669921875,0-1.09375-0.3828125q-0.314453125-0.751953125-0.369140625-1.873046875t-0.0546875-2.1875z"/><path fill="#32b1c7" d=""/></svg>
